# xmcd
#
# Track frame offsets: 
#        150
#        13985
#        35377
#        50637
#        57695
#        66157
#        78752
#        110040
#        128975
#        163950
#        187797
#        204802
#        211890
#        247785
#        268087
#        282570
#
# Disc length: 4273 seconds
#
# Revision: 25
# Processed by: cddbd v1.5.2PL0 Copyright (c) Steve Scherf et al.
# Submitted via: ExactAudioCopy v1.3
#
DISCID=ec10af10
DTITLE=Various Artist - Meisterwerke der Klassik - Die schönsten Klavierwerke
DTITLE=Various Artist - CD 2
DYEAR=2005
DGENRE=Classical
TTITLE0=Wolfgang Amadeus Mozart - Klavierkonzert No.26 - I: Allegro (A
TTITLE0=usschnitt)
TTITLE1=Frédéric Chopin - Grande Valse brillante
TTITLE2=George Gershwin - Rhapsody in Blue (Ausschnitt)
TTITLE3=Eric Satie - La Belle excentrique - I: Grande Ritournelle
TTITLE4=Frédéric Chopin - Étude Op.10 No.5
TTITLE5=Robert Schumann - Fantasiestücke - Aufschwung
TTITLE6=Felix Mendelssohn Bartholdy - Rondo capriccioso Op.14
TTITLE7=Ludwig van Beethoven - Klaviersonate No.21 'Waldsteinsonate' -
TTITLE7=I: Allegro con brio (Ausschnittt)
TTITLE8=Franz Liszt - Les Jeux d'eau à la Villa d'Este
TTITLE9=Maurice Ravel - Gaspard de la nuit - Ondine
TTITLE10=Duncan Faure - Impromptu No.2 Op.31
TTITLE11=Eric Satie - Le Piccadilly
TTITLE12=Carl Maria von Weber - Einladung zum Tanz
TTITLE13=Wolfgang Amadeus Mozart - Klaviersonate K545 - I: Allegro
TTITLE14=Sergei Wassiljewitsch Rachmaninow - Klavierkonzert No.3 - I: 
TTITLE14=Allebro ma non tanto (extract)
TTITLE15=George Gershwin - Gershwin - I got rhythm
EXTD=YEAR: 2005
EXTT0=
EXTT1=
EXTT2=
EXTT3=
EXTT4=
EXTT5=
EXTT6=
EXTT7=
EXTT8=
EXTT9=
EXTT10=
EXTT11=
EXTT12=
EXTT13=
EXTT14=
EXTT15=
PLAYORDER=
